<?xml version="1.0" encoding="UTF-8" standalone="no"?>
<!-- Created with Inkscape (http://www.inkscape.org/) -->

<svg
   version="1.1"
   id="svg2"
   xml:space="preserve"
   width="400"
   height="400"
   viewBox="0 0 400 400"
   sodipodi:docname="united-states-of-america-flag-round.ai"
   xmlns:inkscape="http://www.inkscape.org/namespaces/inkscape"
   xmlns:sodipodi="http://sodipodi.sourceforge.net/DTD/sodipodi-0.dtd"
   xmlns="http://www.w3.org/2000/svg"
   xmlns:svg="http://www.w3.org/2000/svg"><defs
     id="defs6"><clipPath
       clipPathUnits="userSpaceOnUse"
       id="clipPath16"><path
         d="M 150,300 C 67.157,300 0,232.843 0,150 v 0 C 0,67.157 67.157,0 150,0 v 0 c 82.843,0 150,67.157 150,150 v 0 c 0,82.843 -67.157,150 -150,150 z"
         id="path14" /></clipPath></defs><sodipodi:namedview
     id="namedview4"
     pagecolor="#ffffff"
     bordercolor="#666666"
     borderopacity="1.0"
     inkscape:pageshadow="2"
     inkscape:pageopacity="0.0"
     inkscape:pagecheckerboard="0" /><g
     id="g8"
     inkscape:groupmode="layer"
     inkscape:label="united-states-of-america-flag-round"
     transform="matrix(1.3333333,0,0,-1.3333333,0,400)"><g
       id="g10"><g
         id="g12"
         clip-path="url(#clipPath16)"><path
           d="M 0,300 H 570 V 0 H 0 Z"
           style="fill:#ffffff;fill-opacity:1;fill-rule:nonzero;stroke:none"
           id="path18" /><path
           d="M 0,300 H 570 V 276.923 H 0 Z"
           style="fill:#b22234;fill-opacity:1;fill-rule:nonzero;stroke:none"
           id="path20" /><path
           d="M 0,253.846 H 570 V 230.769 H 0 Z"
           style="fill:#b22234;fill-opacity:1;fill-rule:nonzero;stroke:none"
           id="path22" /><path
           d="M 0,207.692 H 570 V 184.615 H 0 Z"
           style="fill:#b22234;fill-opacity:1;fill-rule:nonzero;stroke:none"
           id="path24" /><path
           d="M 0,161.538 H 570 V 138.461 H 0 Z"
           style="fill:#b22234;fill-opacity:1;fill-rule:nonzero;stroke:none"
           id="path26" /><path
           d="M 0,115.385 H 570 V 92.309 H 0 Z"
           style="fill:#b22234;fill-opacity:1;fill-rule:nonzero;stroke:none"
           id="path28" /><path
           d="M 0,69.231 H 570 V 46.154 H 0 Z"
           style="fill:#b22234;fill-opacity:1;fill-rule:nonzero;stroke:none"
           id="path30" /><path
           d="M 0,23.077 H 570 V 0 H 0 Z"
           style="fill:#b22234;fill-opacity:1;fill-rule:nonzero;stroke:none"
           id="path32" /><path
           d="M 0,300 H 228 V 138.462 H 0 Z"
           style="fill:#3c3b6e;fill-opacity:1;fill-rule:nonzero;stroke:none"
           id="path34" /><g
           id="g36"
           transform="translate(10.7119,286.8859)"><path
             d="m 0,0 5.431,-3.946 -2.074,-6.385 5.431,3.946 5.431,-3.946 -2.075,6.385 L 17.575,0 H 10.862 L 8.788,6.385 6.713,0 Z"
             style="fill:#ffffff;fill-opacity:1;fill-rule:nonzero;stroke:none"
             id="path38" /></g><g
           id="g40"
           transform="translate(48.5118,286.8859)"><path
             d="m 0,0 5.431,-3.946 -2.074,-6.385 5.431,3.946 5.431,-3.946 -2.075,6.385 L 17.575,0 H 10.862 L 8.788,6.385 6.713,0 Z"
             style="fill:#ffffff;fill-opacity:1;fill-rule:nonzero;stroke:none"
             id="path42" /></g><g
           id="g44"
           transform="translate(86.312,286.8859)"><path
             d="m 0,0 5.431,-3.946 -2.074,-6.385 5.431,3.946 5.431,-3.946 -2.075,6.385 L 17.575,0 H 10.862 L 8.788,6.385 6.713,0 Z"
             style="fill:#ffffff;fill-opacity:1;fill-rule:nonzero;stroke:none"
             id="path46" /></g><g
           id="g48"
           transform="translate(124.1122,286.8859)"><path
             d="m 0,0 5.431,-3.946 -2.074,-6.385 5.431,3.946 5.431,-3.946 -2.075,6.385 L 17.575,0 H 10.862 L 8.788,6.385 6.713,0 Z"
             style="fill:#ffffff;fill-opacity:1;fill-rule:nonzero;stroke:none"
             id="path50" /></g><g
           id="g52"
           transform="translate(161.9118,286.8859)"><path
             d="m 0,0 5.431,-3.946 -2.074,-6.385 5.431,3.946 5.431,-3.946 -2.075,6.385 L 17.575,0 H 10.862 L 8.788,6.385 6.713,0 Z"
             style="fill:#ffffff;fill-opacity:1;fill-rule:nonzero;stroke:none"
             id="path54" /></g><g
           id="g56"
           transform="translate(199.7117,286.8859)"><path
             d="m 0,0 5.431,-3.946 -2.074,-6.385 5.431,3.946 5.431,-3.946 -2.075,6.385 L 17.575,0 H 10.862 L 8.788,6.385 6.713,0 Z"
             style="fill:#ffffff;fill-opacity:1;fill-rule:nonzero;stroke:none"
             id="path58" /></g><g
           id="g60"
           transform="translate(29.6117,270.6857)"><path
             d="m 0,0 5.431,-3.946 -2.074,-6.385 5.431,3.946 5.431,-3.946 -2.075,6.385 L 17.575,0 H 10.862 L 8.788,6.385 6.713,0 Z"
             style="fill:#ffffff;fill-opacity:1;fill-rule:nonzero;stroke:none"
             id="path62" /></g><g
           id="g64"
           transform="translate(67.4118,270.6857)"><path
             d="m 0,0 5.431,-3.946 -2.074,-6.385 5.431,3.946 5.431,-3.946 -2.075,6.385 L 17.575,0 H 10.862 L 8.788,6.385 6.713,0 Z"
             style="fill:#ffffff;fill-opacity:1;fill-rule:nonzero;stroke:none"
             id="path66" /></g><g
           id="g68"
           transform="translate(105.212,270.6857)"><path
             d="m 0,0 5.431,-3.946 -2.074,-6.385 5.431,3.946 5.431,-3.946 -2.075,6.385 L 17.575,0 H 10.862 L 8.788,6.385 6.713,0 Z"
             style="fill:#ffffff;fill-opacity:1;fill-rule:nonzero;stroke:none"
             id="path70" /></g><g
           id="g72"
           transform="translate(143.0117,270.6857)"><path
             d="m 0,0 5.431,-3.946 -2.074,-6.385 5.431,3.946 5.431,-3.946 -2.075,6.385 L 17.575,0 H 10.862 L 8.788,6.385 6.713,0 Z"
             style="fill:#ffffff;fill-opacity:1;fill-rule:nonzero;stroke:none"
             id="path74" /></g><g
           id="g76"
           transform="translate(180.8115,270.6857)"><path
             d="m 0,0 5.431,-3.946 -2.074,-6.385 5.431,3.946 5.431,-3.946 -2.075,6.385 L 17.575,0 H 10.862 L 8.788,6.385 6.713,0 Z"
             style="fill:#ffffff;fill-opacity:1;fill-rule:nonzero;stroke:none"
             id="path78" /></g><g
           id="g80"
           transform="translate(10.7119,254.4854)"><path
             d="m 0,0 5.431,-3.946 -2.074,-6.385 5.431,3.946 5.431,-3.946 -2.075,6.385 L 17.575,0 H 10.862 L 8.788,6.385 6.713,0 Z"
             style="fill:#ffffff;fill-opacity:1;fill-rule:nonzero;stroke:none"
             id="path82" /></g><g
           id="g84"
           transform="translate(48.5118,254.4854)"><path
             d="m 0,0 5.431,-3.946 -2.074,-6.385 5.431,3.946 5.431,-3.946 -2.075,6.385 L 17.575,0 H 10.862 L 8.788,6.385 6.713,0 Z"
             style="fill:#ffffff;fill-opacity:1;fill-rule:nonzero;stroke:none"
             id="path86" /></g><g
           id="g88"
           transform="translate(86.312,254.4854)"><path
             d="m 0,0 5.431,-3.946 -2.074,-6.385 5.431,3.946 5.431,-3.946 -2.075,6.385 L 17.575,0 H 10.862 L 8.788,6.385 6.713,0 Z"
             style="fill:#ffffff;fill-opacity:1;fill-rule:nonzero;stroke:none"
             id="path90" /></g><g
           id="g92"
           transform="translate(124.1122,254.4854)"><path
             d="m 0,0 5.431,-3.946 -2.074,-6.385 5.431,3.946 5.431,-3.946 -2.075,6.385 L 17.575,0 H 10.862 L 8.788,6.385 6.713,0 Z"
             style="fill:#ffffff;fill-opacity:1;fill-rule:nonzero;stroke:none"
             id="path94" /></g><g
           id="g96"
           transform="translate(161.9118,254.4854)"><path
             d="m 0,0 5.431,-3.946 -2.074,-6.385 5.431,3.946 5.431,-3.946 -2.075,6.385 L 17.575,0 H 10.862 L 8.788,6.385 6.713,0 Z"
             style="fill:#ffffff;fill-opacity:1;fill-rule:nonzero;stroke:none"
             id="path98" /></g><g
           id="g100"
           transform="translate(199.7117,254.4854)"><path
             d="m 0,0 5.431,-3.946 -2.074,-6.385 5.431,3.946 5.431,-3.946 -2.075,6.385 L 17.575,0 H 10.862 L 8.788,6.385 6.713,0 Z"
             style="fill:#ffffff;fill-opacity:1;fill-rule:nonzero;stroke:none"
             id="path102" /></g><g
           id="g104"
           transform="translate(30.078,238.232)"><path
             d="m 0,0 5.431,-3.946 -2.074,-6.385 5.431,3.946 5.431,-3.946 -2.075,6.385 L 17.575,0 H 10.862 L 8.788,6.385 6.713,0 Z"
             style="fill:#ffffff;fill-opacity:1;fill-rule:nonzero;stroke:none"
             id="path106" /></g><g
           id="g108"
           transform="translate(67.8782,238.232)"><path
             d="m 0,0 5.431,-3.946 -2.074,-6.385 5.431,3.946 5.431,-3.946 -2.075,6.385 L 17.575,0 H 10.862 L 8.788,6.385 6.713,0 Z"
             style="fill:#ffffff;fill-opacity:1;fill-rule:nonzero;stroke:none"
             id="path110" /></g><g
           id="g112"
           transform="translate(105.6784,238.232)"><path
             d="m 0,0 5.431,-3.946 -2.074,-6.385 5.431,3.946 5.431,-3.946 -2.075,6.385 L 17.575,0 H 10.862 L 8.788,6.385 6.713,0 Z"
             style="fill:#ffffff;fill-opacity:1;fill-rule:nonzero;stroke:none"
             id="path114" /></g><g
           id="g116"
           transform="translate(143.478,238.232)"><path
             d="m 0,0 5.431,-3.946 -2.074,-6.385 5.431,3.946 5.431,-3.946 -2.075,6.385 L 17.575,0 H 10.862 L 8.788,6.385 6.713,0 Z"
             style="fill:#ffffff;fill-opacity:1;fill-rule:nonzero;stroke:none"
             id="path118" /></g><g
           id="g120"
           transform="translate(181.2779,238.232)"><path
             d="m 0,0 5.431,-3.946 -2.074,-6.385 5.431,3.946 5.431,-3.946 -2.075,6.385 L 17.575,0 H 10.862 L 8.788,6.385 6.713,0 Z"
             style="fill:#ffffff;fill-opacity:1;fill-rule:nonzero;stroke:none"
             id="path122" /></g><g
           id="g124"
           transform="translate(11.2855,222.1677)"><path
             d="m 0,0 5.431,-3.946 -2.074,-6.385 5.431,3.946 5.431,-3.946 -2.075,6.385 L 17.575,0 H 10.862 L 8.788,6.385 6.713,0 Z"
             style="fill:#ffffff;fill-opacity:1;fill-rule:nonzero;stroke:none"
             id="path126" /></g><g
           id="g128"
           transform="translate(49.0854,222.1677)"><path
             d="m 0,0 5.431,-3.946 -2.074,-6.385 5.431,3.946 5.431,-3.946 -2.075,6.385 L 17.575,0 H 10.862 L 8.788,6.385 6.713,0 Z"
             style="fill:#ffffff;fill-opacity:1;fill-rule:nonzero;stroke:none"
             id="path130" /></g><g
           id="g132"
           transform="translate(86.8855,222.1677)"><path
             d="m 0,0 5.431,-3.946 -2.074,-6.385 5.431,3.946 5.431,-3.946 -2.075,6.385 L 17.575,0 H 10.862 L 8.788,6.385 6.713,0 Z"
             style="fill:#ffffff;fill-opacity:1;fill-rule:nonzero;stroke:none"
             id="path134" /></g><g
           id="g136"
           transform="translate(124.6857,222.1677)"><path
             d="m 0,0 5.431,-3.946 -2.074,-6.385 5.431,3.946 5.431,-3.946 -2.075,6.385 L 17.575,0 H 10.862 L 8.788,6.385 6.713,0 Z"
             style="fill:#ffffff;fill-opacity:1;fill-rule:nonzero;stroke:none"
             id="path138" /></g><g
           id="g140"
           transform="translate(162.4854,222.1677)"><path
             d="m 0,0 5.431,-3.946 -2.074,-6.385 5.431,3.946 5.431,-3.946 -2.075,6.385 L 17.575,0 H 10.862 L 8.788,6.385 6.713,0 Z"
             style="fill:#ffffff;fill-opacity:1;fill-rule:nonzero;stroke:none"
             id="path142" /></g><g
           id="g144"
           transform="translate(200.2852,222.1677)"><path
             d="m 0,0 5.431,-3.946 -2.074,-6.385 5.431,3.946 5.431,-3.946 -2.075,6.385 L 17.575,0 H 10.862 L 8.788,6.385 6.713,0 Z"
             style="fill:#ffffff;fill-opacity:1;fill-rule:nonzero;stroke:none"
             id="path146" /></g><g
           id="g148"
           transform="translate(11.6397,190.2803)"><path
             d="m 0,0 5.431,-3.946 -2.074,-6.385 5.431,3.946 5.431,-3.946 -2.075,6.385 L 17.575,0 H 10.862 L 8.788,6.385 6.713,0 Z"
             style="fill:#ffffff;fill-opacity:1;fill-rule:nonzero;stroke:none"
             id="path150" /></g><g
           id="g152"
           transform="translate(49.4396,190.2803)"><path
             d="m 0,0 5.431,-3.946 -2.074,-6.385 5.431,3.946 5.431,-3.946 -2.075,6.385 L 17.575,0 H 10.862 L 8.788,6.385 6.713,0 Z"
             style="fill:#ffffff;fill-opacity:1;fill-rule:nonzero;stroke:none"
             id="path154" /></g><g
           id="g156"
           transform="translate(87.2397,190.2803)"><path
             d="m 0,0 5.431,-3.946 -2.074,-6.385 5.431,3.946 5.431,-3.946 -2.075,6.385 L 17.575,0 H 10.862 L 8.788,6.385 6.713,0 Z"
             style="fill:#ffffff;fill-opacity:1;fill-rule:nonzero;stroke:none"
             id="path158" /></g><g
           id="g160"
           transform="translate(125.0399,190.2803)"><path
             d="m 0,0 5.431,-3.946 -2.074,-6.385 5.431,3.946 5.431,-3.946 -2.075,6.385 L 17.575,0 H 10.862 L 8.788,6.385 6.713,0 Z"
             style="fill:#ffffff;fill-opacity:1;fill-rule:nonzero;stroke:none"
             id="path162" /></g><g
           id="g164"
           transform="translate(162.8396,190.2803)"><path
             d="m 0,0 5.431,-3.946 -2.074,-6.385 5.431,3.946 5.431,-3.946 -2.075,6.385 L 17.575,0 H 10.862 L 8.788,6.385 6.713,0 Z"
             style="fill:#ffffff;fill-opacity:1;fill-rule:nonzero;stroke:none"
             id="path166" /></g><g
           id="g168"
           transform="translate(200.6394,190.2803)"><path
             d="m 0,0 5.431,-3.946 -2.074,-6.385 5.431,3.946 5.431,-3.946 -2.075,6.385 L 17.575,0 H 10.862 L 8.788,6.385 6.713,0 Z"
             style="fill:#ffffff;fill-opacity:1;fill-rule:nonzero;stroke:none"
             id="path170" /></g><g
           id="g172"
           transform="translate(11.178,158.0182)"><path
             d="m 0,0 5.431,-3.946 -2.074,-6.385 5.431,3.946 5.431,-3.946 -2.075,6.385 L 17.575,0 H 10.862 L 8.788,6.385 6.713,0 Z"
             style="fill:#ffffff;fill-opacity:1;fill-rule:nonzero;stroke:none"
             id="path174" /></g><g
           id="g176"
           transform="translate(48.9779,158.0182)"><path
             d="m 0,0 5.431,-3.946 -2.074,-6.385 5.431,3.946 5.431,-3.946 -2.075,6.385 L 17.575,0 H 10.862 L 8.788,6.385 6.713,0 Z"
             style="fill:#ffffff;fill-opacity:1;fill-rule:nonzero;stroke:none"
             id="path178" /></g><g
           id="g180"
           transform="translate(86.778,158.0182)"><path
             d="m 0,0 5.431,-3.946 -2.074,-6.385 5.431,3.946 5.431,-3.946 -2.075,6.385 L 17.575,0 H 10.862 L 8.788,6.385 6.713,0 Z"
             style="fill:#ffffff;fill-opacity:1;fill-rule:nonzero;stroke:none"
             id="path182" /></g><g
           id="g184"
           transform="translate(124.5782,158.0182)"><path
             d="m 0,0 5.431,-3.946 -2.074,-6.385 5.431,3.946 5.431,-3.946 -2.075,6.385 L 17.575,0 H 10.862 L 8.788,6.385 6.713,0 Z"
             style="fill:#ffffff;fill-opacity:1;fill-rule:nonzero;stroke:none"
             id="path186" /></g><g
           id="g188"
           transform="translate(162.3779,158.0182)"><path
             d="m 0,0 5.431,-3.946 -2.074,-6.385 5.431,3.946 5.431,-3.946 -2.075,6.385 L 17.575,0 H 10.862 L 8.788,6.385 6.713,0 Z"
             style="fill:#ffffff;fill-opacity:1;fill-rule:nonzero;stroke:none"
             id="path190" /></g><g
           id="g192"
           transform="translate(200.1777,158.0182)"><path
             d="m 0,0 5.431,-3.946 -2.074,-6.385 5.431,3.946 5.431,-3.946 -2.075,6.385 L 17.575,0 H 10.862 L 8.788,6.385 6.713,0 Z"
             style="fill:#ffffff;fill-opacity:1;fill-rule:nonzero;stroke:none"
             id="path194" /></g><g
           id="g196"
           transform="translate(30.1903,206.3841)"><path
             d="m 0,0 5.431,-3.946 -2.074,-6.385 5.431,3.946 5.431,-3.946 -2.075,6.385 L 17.575,0 H 10.862 L 8.788,6.385 6.713,0 Z"
             style="fill:#ffffff;fill-opacity:1;fill-rule:nonzero;stroke:none"
             id="path198" /></g><g
           id="g200"
           transform="translate(67.9904,206.3841)"><path
             d="m 0,0 5.431,-3.946 -2.074,-6.385 5.431,3.946 5.431,-3.946 -2.075,6.385 L 17.575,0 H 10.862 L 8.788,6.385 6.713,0 Z"
             style="fill:#ffffff;fill-opacity:1;fill-rule:nonzero;stroke:none"
             id="path202" /></g><g
           id="g204"
           transform="translate(105.7906,206.3841)"><path
             d="m 0,0 5.431,-3.946 -2.074,-6.385 5.431,3.946 5.431,-3.946 -2.075,6.385 L 17.575,0 H 10.862 L 8.788,6.385 6.713,0 Z"
             style="fill:#ffffff;fill-opacity:1;fill-rule:nonzero;stroke:none"
             id="path206" /></g><g
           id="g208"
           transform="translate(143.5903,206.3841)"><path
             d="m 0,0 5.431,-3.946 -2.074,-6.385 5.431,3.946 5.431,-3.946 -2.075,6.385 L 17.575,0 H 10.862 L 8.788,6.385 6.713,0 Z"
             style="fill:#ffffff;fill-opacity:1;fill-rule:nonzero;stroke:none"
             id="path210" /></g><g
           id="g212"
           transform="translate(181.3901,206.3841)"><path
             d="m 0,0 5.431,-3.946 -2.074,-6.385 5.431,3.946 5.431,-3.946 -2.075,6.385 L 17.575,0 H 10.862 L 8.788,6.385 6.713,0 Z"
             style="fill:#ffffff;fill-opacity:1;fill-rule:nonzero;stroke:none"
             id="path214" /></g><g
           id="g216"
           transform="translate(30.0784,174.1721)"><path
             d="m 0,0 5.431,-3.946 -2.074,-6.385 5.431,3.946 5.431,-3.946 -2.075,6.385 L 17.575,0 H 10.862 L 8.788,6.385 6.713,0 Z"
             style="fill:#ffffff;fill-opacity:1;fill-rule:nonzero;stroke:none"
             id="path218" /></g><g
           id="g220"
           transform="translate(67.8785,174.1721)"><path
             d="m 0,0 5.431,-3.946 -2.074,-6.385 5.431,3.946 5.431,-3.946 -2.075,6.385 L 17.575,0 H 10.862 L 8.788,6.385 6.713,0 Z"
             style="fill:#ffffff;fill-opacity:1;fill-rule:nonzero;stroke:none"
             id="path222" /></g><g
           id="g224"
           transform="translate(105.6787,174.1721)"><path
             d="m 0,0 5.431,-3.946 -2.074,-6.385 5.431,3.946 5.431,-3.946 -2.075,6.385 L 17.575,0 H 10.862 L 8.788,6.385 6.713,0 Z"
             style="fill:#ffffff;fill-opacity:1;fill-rule:nonzero;stroke:none"
             id="path226" /></g><g
           id="g228"
           transform="translate(143.4784,174.1721)"><path
             d="m 0,0 5.431,-3.946 -2.074,-6.385 5.431,3.946 5.431,-3.946 -2.075,6.385 L 17.575,0 H 10.862 L 8.788,6.385 6.713,0 Z"
             style="fill:#ffffff;fill-opacity:1;fill-rule:nonzero;stroke:none"
             id="path230" /></g><g
           id="g232"
           transform="translate(181.2782,174.1721)"><path
             d="m 0,0 5.431,-3.946 -2.074,-6.385 5.431,3.946 5.431,-3.946 -2.075,6.385 L 17.575,0 H 10.862 L 8.788,6.385 6.713,0 Z"
             style="fill:#ffffff;fill-opacity:1;fill-rule:nonzero;stroke:none"
             id="path234" /></g></g></g></g></svg>
