<svg width="16" height="16" viewBox="0 0 16 16" fill="none" xmlns="http://www.w3.org/2000/svg">
<mask id="mask0_65_508" style="mask-type:alpha" maskUnits="userSpaceOnUse" x="0" y="0" width="16" height="16">
<circle cx="8" cy="8" r="8" fill="#C4C4C4"/>
</mask>
<g mask="url(#mask0_65_508)">
<path d="M0 10.6667H24V16H0V10.6667Z" fill="#1EB53A"/>
<path d="M0 0H24V5.33333H0V0Z" fill="#0099B5"/>
<path d="M0 5.12H24V10.88H0V5.12Z" fill="#CE1126"/>
<path d="M0 5.44H24V10.56H0V5.44Z" fill="white"/>
<path d="M5.04 4.48C6.23293 4.48 7.2 3.62039 7.2 2.56C7.2 1.49961 6.23293 0.64 5.04 0.64C3.84706 0.64 2.88 1.49961 2.88 2.56C2.88 3.62039 3.84706 4.48 5.04 4.48Z" fill="white"/>
<path d="M5.76 4.48C6.95294 4.48 7.92 3.62039 7.92 2.56C7.92 1.49961 6.95294 0.64 5.76 0.64C4.56707 0.64 3.6 1.49961 3.6 2.56C3.6 3.62039 4.56707 4.48 5.76 4.48Z" fill="#0099B5"/>
<path d="M6.83071 2.60155L6.69391 2.96635L6.90271 3.03035" fill="white"/>
<path d="M6.83071 2.60155L6.96751 2.96635L6.75871 3.03035" fill="white"/>
<path d="M7.24157 2.86689L6.80898 2.86397L6.80503 3.06027" fill="white"/>
<path d="M7.24157 2.86689L6.89353 3.09527L6.76053 2.93853" fill="white"/>
<path d="M6.41986 2.86689L6.7679 3.09527L6.90089 2.93853" fill="white"/>
<path d="M6.41986 2.86689L6.85244 2.86397L6.8564 3.06027" fill="white"/>
<path d="M7.08463 3.29622L6.95408 2.92961L6.74284 2.98693" fill="white"/>
<path d="M7.08463 3.29622L6.73273 3.07256L6.85934 2.91169" fill="white"/>
<path d="M6.57679 3.29622L6.92869 3.07256L6.80209 2.91169" fill="white"/>
<path d="M6.57679 3.29622L6.70734 2.92961L6.91858 2.98693" fill="white"/>
<path d="M6.83071 2.60155L6.69391 2.96635L6.90271 3.03035" fill="white"/>
<path d="M6.83071 2.60155L6.96751 2.96635L6.75871 3.03035" fill="white"/>
<path d="M7.24157 2.86689L6.80898 2.86397L6.80503 3.06027" fill="white"/>
<path d="M7.24157 2.86689L6.89353 3.09527L6.76053 2.93853" fill="white"/>
<path d="M6.41986 2.86689L6.7679 3.09527L6.90089 2.93853" fill="white"/>
<path d="M6.41986 2.86689L6.85244 2.86397L6.8564 3.06027" fill="white"/>
<path d="M7.08463 3.29622L6.95408 2.92961L6.74284 2.98693" fill="white"/>
<path d="M7.08463 3.29622L6.73273 3.07256L6.85934 2.91169" fill="white"/>
<path d="M6.57679 3.29622L6.92869 3.07256L6.80209 2.91169" fill="white"/>
<path d="M6.57679 3.29622L6.70734 2.92961L6.91858 2.98693" fill="white"/>
<path d="M6.83071 2.60155L6.69391 2.96635L6.90271 3.03035" fill="white"/>
<path d="M6.83071 2.60155L6.96751 2.96635L6.75871 3.03035" fill="white"/>
<path d="M7.24157 2.86689L6.80898 2.86397L6.80503 3.06027" fill="white"/>
<path d="M7.24157 2.86689L6.89353 3.09527L6.76053 2.93853" fill="white"/>
<path d="M6.41986 2.86689L6.7679 3.09527L6.90089 2.93853" fill="white"/>
<path d="M6.41986 2.86689L6.85244 2.86397L6.8564 3.06027" fill="white"/>
<path d="M7.08463 3.29622L6.95408 2.92961L6.74284 2.98693" fill="white"/>
<path d="M7.08463 3.29622L6.73273 3.07256L6.85934 2.91169" fill="white"/>
<path d="M6.57679 3.29622L6.92869 3.07256L6.80209 2.91169" fill="white"/>
<path d="M6.57679 3.29622L6.70734 2.92961L6.91858 2.98693" fill="white"/>
<path d="M6.83071 2.60155L6.69391 2.96635L6.90271 3.03035" fill="white"/>
<path d="M6.83071 2.60155L6.96751 2.96635L6.75871 3.03035" fill="white"/>
<path d="M7.24157 2.86689L6.80898 2.86397L6.80503 3.06027" fill="white"/>
<path d="M7.24157 2.86689L6.89353 3.09527L6.76053 2.93853" fill="white"/>
<path d="M6.41986 2.86689L6.7679 3.09527L6.90089 2.93853" fill="white"/>
<path d="M6.41986 2.86689L6.85244 2.86397L6.8564 3.06027" fill="white"/>
<path d="M7.08463 3.29622L6.95408 2.92961L6.74284 2.98693" fill="white"/>
<path d="M7.08463 3.29622L6.73273 3.07256L6.85934 2.91169" fill="white"/>
<path d="M6.57679 3.29622L6.92869 3.07256L6.80209 2.91169" fill="white"/>
<path d="M6.57679 3.29622L6.70734 2.92961L6.91858 2.98693" fill="white"/>
<path d="M6.83071 2.60155L6.69391 2.96635L6.90271 3.03035" fill="white"/>
<path d="M6.83071 2.60155L6.96751 2.96635L6.75871 3.03035" fill="white"/>
<path d="M7.24157 2.86689L6.80898 2.86397L6.80503 3.06027" fill="white"/>
<path d="M7.24157 2.86689L6.89353 3.09527L6.76053 2.93853" fill="white"/>
<path d="M6.41986 2.86689L6.7679 3.09527L6.90089 2.93853" fill="white"/>
<path d="M6.41986 2.86689L6.85244 2.86397L6.8564 3.06027" fill="white"/>
<path d="M7.08463 3.29622L6.95408 2.92961L6.74284 2.98693" fill="white"/>
<path d="M7.08463 3.29622L6.73273 3.07256L6.85934 2.91169" fill="white"/>
<path d="M6.57679 3.29622L6.92869 3.07256L6.80209 2.91169" fill="white"/>
<path d="M6.57679 3.29622L6.70734 2.92961L6.91858 2.98693" fill="white"/>
<path d="M6.83071 2.60155L6.69391 2.96635L6.90271 3.03035" fill="white"/>
<path d="M6.83071 2.60155L6.96751 2.96635L6.75871 3.03035" fill="white"/>
<path d="M7.24157 2.86689L6.80898 2.86397L6.80503 3.06027" fill="white"/>
<path d="M7.24157 2.86689L6.89353 3.09527L6.76053 2.93853" fill="white"/>
<path d="M6.41986 2.86689L6.7679 3.09527L6.90089 2.93853" fill="white"/>
<path d="M6.41986 2.86689L6.85244 2.86397L6.8564 3.06027" fill="white"/>
<path d="M7.08463 3.29622L6.95408 2.92961L6.74284 2.98693" fill="white"/>
<path d="M7.08463 3.29622L6.73273 3.07256L6.85934 2.91169" fill="white"/>
<path d="M6.57679 3.29622L6.92869 3.07256L6.80209 2.91169" fill="white"/>
<path d="M6.57679 3.29622L6.70734 2.92961L6.91858 2.98693" fill="white"/>
<path d="M6.83071 2.60155L6.69391 2.96635L6.90271 3.03035" fill="white"/>
<path d="M6.83071 2.60155L6.96751 2.96635L6.75871 3.03035" fill="white"/>
<path d="M7.24157 2.86689L6.80898 2.86397L6.80503 3.06027" fill="white"/>
<path d="M7.24157 2.86689L6.89353 3.09527L6.76053 2.93853" fill="white"/>
<path d="M6.41986 2.86689L6.7679 3.09527L6.90089 2.93853" fill="white"/>
<path d="M6.41986 2.86689L6.85244 2.86397L6.8564 3.06027" fill="white"/>
<path d="M7.08463 3.29622L6.95408 2.92961L6.74284 2.98693" fill="white"/>
<path d="M7.08463 3.29622L6.73273 3.07256L6.85934 2.91169" fill="white"/>
<path d="M6.57679 3.29622L6.92869 3.07256L6.80209 2.91169" fill="white"/>
<path d="M6.57679 3.29622L6.70734 2.92961L6.91858 2.98693" fill="white"/>
<path d="M6.83071 2.60155L6.69391 2.96635L6.90271 3.03035" fill="white"/>
<path d="M6.83071 2.60155L6.96751 2.96635L6.75871 3.03035" fill="white"/>
<path d="M7.24157 2.86689L6.80898 2.86397L6.80503 3.06027" fill="white"/>
<path d="M7.24157 2.86689L6.89353 3.09527L6.76053 2.93853" fill="white"/>
<path d="M6.41986 2.86689L6.7679 3.09527L6.90089 2.93853" fill="white"/>
<path d="M6.41986 2.86689L6.85244 2.86397L6.8564 3.06027" fill="white"/>
<path d="M7.08463 3.29622L6.95408 2.92961L6.74284 2.98693" fill="white"/>
<path d="M7.08463 3.29622L6.73273 3.07256L6.85934 2.91169" fill="white"/>
<path d="M6.57679 3.29622L6.92869 3.07256L6.80209 2.91169" fill="white"/>
<path d="M6.57679 3.29622L6.70734 2.92961L6.91858 2.98693" fill="white"/>
<path d="M6.83071 2.60155L6.69391 2.96635L6.90271 3.03035" fill="white"/>
<path d="M6.83071 2.60155L6.96751 2.96635L6.75871 3.03035" fill="white"/>
<path d="M7.24157 2.86689L6.80898 2.86397L6.80503 3.06027" fill="white"/>
<path d="M7.24157 2.86689L6.89353 3.09527L6.76053 2.93853" fill="white"/>
<path d="M6.41986 2.86689L6.7679 3.09527L6.90089 2.93853" fill="white"/>
<path d="M6.41986 2.86689L6.85244 2.86397L6.8564 3.06027" fill="white"/>
<path d="M7.08463 3.29622L6.95408 2.92961L6.74284 2.98693" fill="white"/>
<path d="M7.08463 3.29622L6.73273 3.07256L6.85934 2.91169" fill="white"/>
<path d="M6.57679 3.29622L6.92869 3.07256L6.80209 2.91169" fill="white"/>
<path d="M6.57679 3.29622L6.70734 2.92961L6.91858 2.98693" fill="white"/>
<path d="M6.83071 2.60155L6.69391 2.96635L6.90271 3.03035" fill="white"/>
<path d="M6.83071 2.60155L6.96751 2.96635L6.75871 3.03035" fill="white"/>
<path d="M7.24157 2.86689L6.80898 2.86397L6.80503 3.06027" fill="white"/>
<path d="M7.24157 2.86689L6.89353 3.09527L6.76053 2.93853" fill="white"/>
<path d="M6.41986 2.86689L6.7679 3.09527L6.90089 2.93853" fill="white"/>
<path d="M6.41986 2.86689L6.85244 2.86397L6.8564 3.06027" fill="white"/>
<path d="M7.08463 3.29622L6.95408 2.92961L6.74284 2.98693" fill="white"/>
<path d="M7.08463 3.29622L6.73273 3.07256L6.85934 2.91169" fill="white"/>
<path d="M6.57679 3.29622L6.92869 3.07256L6.80209 2.91169" fill="white"/>
<path d="M6.57679 3.29622L6.70734 2.92961L6.91858 2.98693" fill="white"/>
<path d="M6.83071 2.60155L6.69391 2.96635L6.90271 3.03035" fill="white"/>
<path d="M6.83071 2.60155L6.96751 2.96635L6.75871 3.03035" fill="white"/>
<path d="M7.24157 2.86689L6.80898 2.86397L6.80503 3.06027" fill="white"/>
<path d="M7.24157 2.86689L6.89353 3.09527L6.76053 2.93853" fill="white"/>
<path d="M6.41986 2.86689L6.7679 3.09527L6.90089 2.93853" fill="white"/>
<path d="M6.41986 2.86689L6.85244 2.86397L6.8564 3.06027" fill="white"/>
<path d="M7.08463 3.29622L6.95408 2.92961L6.74284 2.98693" fill="white"/>
<path d="M7.08463 3.29622L6.73273 3.07256L6.85934 2.91169" fill="white"/>
<path d="M6.57679 3.29622L6.92869 3.07256L6.80209 2.91169" fill="white"/>
<path d="M6.57679 3.29622L6.70734 2.92961L6.91858 2.98693" fill="white"/>
<path d="M6.83071 2.60155L6.69391 2.96635L6.90271 3.03035" fill="white"/>
<path d="M6.83071 2.60155L6.96751 2.96635L6.75871 3.03035" fill="white"/>
<path d="M7.24157 2.86689L6.80898 2.86397L6.80503 3.06027" fill="white"/>
<path d="M7.24157 2.86689L6.89353 3.09527L6.76053 2.93853" fill="white"/>
<path d="M6.41986 2.86689L6.7679 3.09527L6.90089 2.93853" fill="white"/>
<path d="M6.41986 2.86689L6.85244 2.86397L6.8564 3.06027" fill="white"/>
<path d="M7.08463 3.29622L6.95408 2.92961L6.74284 2.98693" fill="white"/>
<path d="M7.08463 3.29622L6.73273 3.07256L6.85934 2.91169" fill="white"/>
<path d="M6.57679 3.29622L6.92869 3.07256L6.80209 2.91169" fill="white"/>
<path d="M6.57679 3.29622L6.70734 2.92961L6.91858 2.98693" fill="white"/>
</g>
</svg>
